<svg viewBox="0 0 20 20" xmlns="http://www.w3.org/2000/svg" xmlns:xlink="http://www.w3.org/1999/xlink" width="20.000000" height="20.000000" fill="none">
	<defs>
		<linearGradient id="paint_linear_2" x1="4.1404705" x2="15.5406647" y1="15.2650213" y2="5.02164173" gradientUnits="userSpaceOnUse">
			<stop stop-color="rgb(247,233,63)" offset="0" stop-opacity="1" />
			<stop stop-color="rgb(251,9,180)" offset="0.511200011" stop-opacity="1" />
			<stop stop-color="rgb(145,0,248)" offset="1" stop-opacity="1" />
		</linearGradient>
	</defs>
	<rect id="mdi:instagram" width="20.000000" height="20.000000" x="0.000000" y="0.000000" fill="rgb(255,255,255)" fill-opacity="0" />
	<path id="Vector" d="M6.49996 1.66675L13.5 1.66675C16.1666 1.66675 18.3333 3.83341 18.3333 6.50008L18.3333 13.5001C18.3333 14.782 17.8241 16.0113 16.9176 16.9178C16.0112 17.8242 14.7818 18.3334 13.5 18.3334L6.49996 18.3334C3.83329 18.3334 1.66663 16.1667 1.66663 13.5001L1.66663 6.50008C1.66663 5.2182 2.17585 3.98882 3.08228 3.0824C3.9887 2.17597 5.21808 1.66675 6.49996 1.66675ZM6.33329 3.33341C5.53764 3.33341 4.77458 3.64949 4.21197 4.21209C3.64936 4.7747 3.33329 5.53777 3.33329 6.33341L3.33329 13.6667C3.33329 15.3251 4.67496 16.6667 6.33329 16.6667L13.6666 16.6667C14.4623 16.6667 15.2253 16.3507 15.7879 15.7881C16.3506 15.2255 16.6666 14.4624 16.6666 13.6667L16.6666 6.33341C16.6666 4.67508 15.325 3.33341 13.6666 3.33341L6.33329 3.33341ZM14.375 4.58341C14.6512 4.58341 14.9162 4.69316 15.1115 4.88851C15.3069 5.08386 15.4166 5.34881 15.4166 5.62508C15.4166 5.90135 15.3069 6.1663 15.1115 6.36165C14.9162 6.557 14.6512 6.66675 14.375 6.66675C14.0987 6.66675 13.8337 6.557 13.6384 6.36165C13.443 6.1663 13.3333 5.90135 13.3333 5.62508C13.3333 5.34881 13.443 5.08386 13.6384 4.88851C13.8337 4.69316 14.0987 4.58341 14.375 4.58341ZM9.99996 5.83341C11.105 5.83341 12.1648 6.2724 12.9462 7.0538C13.7276 7.8352 14.1666 8.89501 14.1666 10.0001C14.1666 11.1052 13.7276 12.165 12.9462 12.9464C12.1648 13.7278 11.105 14.1667 9.99996 14.1667C8.89489 14.1667 7.83508 13.7278 7.05368 12.9464C6.27228 12.165 5.83329 11.1052 5.83329 10.0001C5.83329 8.89501 6.27228 7.8352 7.05368 7.0538C7.83508 6.2724 8.89489 5.83341 9.99996 5.83341ZM9.99996 7.50008C9.33692 7.50008 8.70103 7.76347 8.23219 8.23231C7.76335 8.70115 7.49996 9.33704 7.49996 10.0001C7.49996 10.6631 7.76335 11.299 8.23219 11.7678C8.70103 12.2367 9.33692 12.5001 9.99996 12.5001C10.663 12.5001 11.2989 12.2367 11.7677 11.7678C12.2366 11.299 12.5 10.6631 12.5 10.0001C12.5 9.33704 12.2366 8.70115 11.7677 8.23231C11.2989 7.76347 10.663 7.50008 9.99996 7.50008Z" fill="url(#paint_linear_2)" fill-rule="nonzero" />
</svg>
