<svg viewBox="0 0 20 20" xmlns="http://www.w3.org/2000/svg" xmlns:xlink="http://www.w3.org/1999/xlink" width="20.000000" height="20.000000" fill="none">
	<defs>
		<linearGradient id="paint_linear_0" x1="4.80758619" x2="15.1143227" y1="14.7381496" y2="4.93245316" gradientUnits="userSpaceOnUse">
			<stop stop-color="rgb(247,233,63)" offset="0" stop-opacity="1" />
			<stop stop-color="rgb(251,9,180)" offset="0.511200011" stop-opacity="1" />
			<stop stop-color="rgb(145,0,248)" offset="1" stop-opacity="1" />
		</linearGradient>
	</defs>
	<rect id="ri:linkedin-fill" width="20.000000" height="20.000000" x="0.000000" y="0.000000" fill="rgb(255,255,255)" fill-opacity="0" />
	<path id="Vector" d="M5.78335 4.16652C5.78312 4.60855 5.60732 5.03239 5.2946 5.34479C4.98188 5.6572 4.55787 5.83258 4.11585 5.83236C3.67382 5.83214 3.24998 5.65633 2.93758 5.34361C2.62517 5.0309 2.44979 4.60688 2.45001 4.16486C2.45023 3.72283 2.62604 3.29899 2.93876 2.98659C3.25147 2.67419 3.67548 2.4988 4.11751 2.49902C4.55954 2.49924 4.98338 2.67505 5.29578 2.98777C5.60818 3.30049 5.78357 3.7245 5.78335 4.16652ZM5.83335 7.06652L2.50001 7.06652L2.50001 17.4999L5.83335 17.4999L5.83335 7.06652ZM11.1 7.06652L7.78335 7.06652L7.78335 17.4999L11.0667 17.4999L11.0667 12.0249C11.0667 8.97486 15.0417 8.69152 15.0417 12.0249L15.0417 17.4999L18.3333 17.4999L18.3333 10.8915C18.3333 5.74986 12.45 5.94152 11.0667 8.46652L11.1 7.06652Z" fill="url(#paint_linear_0)" fill-rule="nonzero" />
</svg>
