<svg viewBox="0 0 20 20" xmlns="http://www.w3.org/2000/svg" xmlns:xlink="http://www.w3.org/1999/xlink" width="20.000000" height="20.000000" fill="none">
	<defs>
		<linearGradient id="paint_linear_3" x1="4.14053154" x2="11.9225721" y1="13.6855402" y2="3.69643879" gradientUnits="userSpaceOnUse">
			<stop stop-color="rgb(247,233,63)" offset="0" stop-opacity="1" />
			<stop stop-color="rgb(251,9,180)" offset="0.511200011" stop-opacity="1" />
			<stop stop-color="rgb(145,0,248)" offset="1" stop-opacity="1" />
		</linearGradient>
		<linearGradient id="paint_linear_4" x1="9.24475861" x2="11.9617662" y1="11.316186" y2="9.36324787" gradientUnits="userSpaceOnUse">
			<stop stop-color="rgb(247,233,63)" offset="0" stop-opacity="1" />
			<stop stop-color="rgb(251,9,180)" offset="0.511200011" stop-opacity="1" />
			<stop stop-color="rgb(145,0,248)" offset="1" stop-opacity="1" />
		</linearGradient>
	</defs>
	<rect id="mynaui:youtube" width="20.000000" height="20.000000" x="0.000000" y="0.000000" fill="rgb(255,255,255)" fill-opacity="0" />
	<g id="Group">
		<path id="Vector" d="M2.88669 5.02092C4.10835 4.16675 6.07169 4.16675 10 4.16675C13.9284 4.16675 15.8925 4.16675 17.1125 5.02092C18.3325 5.87508 18.3334 7.25008 18.3334 10.0001C18.3334 12.7501 18.3334 14.1251 17.1125 14.9792C15.8934 15.8334 13.9284 15.8334 10 15.8334C6.07169 15.8334 4.10752 15.8334 2.88669 14.9792C1.66585 14.1251 1.66669 12.7501 1.66669 10.0001C1.66669 7.25008 1.66669 5.87508 2.88669 5.02092Z" fill-rule="nonzero" stroke="url(#paint_linear_3)" stroke-linecap="round" stroke-linejoin="round" stroke-width="1.500000" />
		<path id="Vector" d="M8.75 11.7433C8.75022 11.7882 8.75928 11.8325 8.77665 11.8739C8.79402 11.9153 8.81937 11.9528 8.85125 11.9844C8.88313 12.016 8.92092 12.0409 8.96246 12.0579C9.004 12.0749 9.04847 12.0835 9.09334 12.0833C9.16095 12.0841 9.22722 12.0643 9.28334 12.0266L11.9292 10.2983C11.9762 10.2678 12.015 10.2261 12.0419 10.1769C12.0688 10.1277 12.083 10.0725 12.0833 10.0165C12.0835 9.96038 12.0698 9.90512 12.0433 9.85568C12.0168 9.80624 11.9785 9.76418 11.9317 9.73329L9.28584 7.97495C9.2102 7.92432 9.11765 7.90555 9.02826 7.92271C8.93887 7.93987 8.85985 7.99158 8.80834 8.06662C8.77002 8.12255 8.74967 8.18883 8.75 8.25662L8.75 11.7433Z" fill-rule="nonzero" stroke="url(#paint_linear_4)" stroke-linecap="round" stroke-linejoin="round" stroke-width="1.500000" />
	</g>
</svg>
